<?xml version="1.0" standalone="no"?>
<!DOCTYPE svg PUBLIC "-//W3C//DTD SVG 20010904//EN"
 "http://www.w3.org/TR/2001/REC-SVG-20010904/DTD/svg10.dtd">
<svg version="1.0" xmlns="http://www.w3.org/2000/svg"
 width="924.000000pt" height="924.000000pt" viewBox="0 0 924.000000 924.000000"
 preserveAspectRatio="xMidYMid meet">
<metadata>
Created by potrace 1.14, written by Peter Selinger 2001-2017
</metadata>
<g transform="translate(0.000000,924.000000) scale(0.100000,-0.100000)"
fill="#000000" stroke="none">
<path d="M6731 7469 c-48 -19 -84 -53 -127 -120 -28 -43 -52 -70 -66 -74 -13
-2 -88 -14 -168 -26 -80 -11 -170 -24 -200 -29 -30 -5 -86 -13 -125 -19 -38
-6 -115 -18 -170 -26 -55 -9 -161 -25 -235 -36 -74 -11 -160 -24 -190 -29 -30
-5 -86 -13 -125 -19 -38 -6 -115 -18 -170 -26 -102 -16 -303 -47 -430 -66 -38
-6 -95 -14 -125 -19 -30 -5 -134 -20 -230 -35 -96 -14 -200 -30 -230 -35 -30
-5 -89 -14 -130 -20 -41 -6 -100 -15 -130 -20 -30 -5 -104 -16 -165 -25 -60
-8 -153 -22 -205 -31 -52 -8 -123 -19 -157 -24 -35 -6 -91 -14 -125 -20 -35
-5 -155 -24 -268 -41 -113 -17 -230 -34 -260 -39 -113 -17 -207 -32 -269 -41
-289 -43 -1841 -281 -1861 -286 -40 -9 -103 -43 -133 -72 -83 -76 -95 -201
-45 -471 11 -60 232 -849 418 -1495 137 -474 578 -2017 642 -2245 52 -190 68
-212 173 -241 89 -24 189 -24 318 1 56 11 212 38 347 60 291 48 611 102 960
164 317 57 364 65 420 77 25 5 119 22 210 39 224 40 562 103 965 180 55 11
186 35 290 55 105 20 235 45 290 55 55 11 186 35 290 55 105 20 235 45 290 55
55 11 127 24 160 30 33 6 143 27 245 46 102 20 208 39 235 44 28 5 264 47 525
94 677 122 659 119 1065 186 243 40 384 68 412 81 57 28 142 121 180 200 48
100 65 178 70 340 l5 146 -297 569 c-164 313 -375 718 -470 899 -375 717 -776
1485 -926 1773 -88 167 -159 308 -159 313 0 6 -9 27 -20 48 -25 50 -89 105
-139 119 -45 14 -126 15 -160 1z m-244 -301 c-25 -42 -32 -64 -32 -105 l0 -52
-40 -7 c-55 -9 -134 -46 -168 -78 -21 -19 -42 -27 -85 -32 -88 -9 -219 -43
-302 -78 -229 -97 -360 -266 -360 -464 l0 -51 -84 45 c-583 310 -1395 443
-2131 348 -618 -79 -1141 -281 -1567 -606 -43 -32 -76 -63 -73 -67 2 -5 -5
-17 -17 -27 -12 -11 -18 -13 -14 -6 13 23 -10 12 -39 -18 -16 -16 -25 -30 -21
-30 4 0 -32 -44 -79 -97 -185 -210 -299 -416 -359 -647 -104 -398 -13 -804
260 -1173 74 -100 277 -301 382 -378 44 -33 81 -63 82 -67 0 -3 -14 -9 -30
-13 -28 -6 -41 1 -123 68 -322 262 -540 591 -611 922 -39 180 -44 289 -21 455
44 311 167 560 417 843 59 67 67 78 29 42 -165 -157 -325 -410 -399 -630 -53
-158 -66 -243 -66 -425 0 -168 9 -231 53 -380 89 -303 321 -627 608 -849 l82
-64 -26 -20 c-43 -34 -53 -74 -53 -212 0 -89 4 -134 14 -153 59 -114 252 -152
396 -79 66 34 90 75 90 154 l0 63 37 -19 c127 -64 410 -163 588 -205 61 -15
126 -31 145 -36 78 -20 295 -50 465 -65 867 -74 1722 145 2335 599 127 94 348
318 432 436 80 114 172 285 164 306 -3 8 -2 13 3 10 5 -3 21 27 35 67 55 156
79 298 79 472 0 220 -48 416 -153 625 -57 114 -59 146 -9 136 69 -14 241 -18
325 -7 375 46 627 233 664 494 18 120 -23 275 -100 385 -72 102 -203 210 -322
264 -64 29 -66 51 -8 108 35 35 58 75 106 181 l60 137 59 -112 c32 -61 82
-156 110 -211 29 -55 196 -374 370 -710 337 -647 1015 -1948 1120 -2151 87
-167 95 -239 34 -309 -41 -46 -84 -61 -271 -91 -187 -30 -1569 -260 -1793
-299 -82 -14 -213 -37 -290 -50 -77 -13 -207 -36 -290 -50 -82 -14 -199 -34
-260 -45 -60 -11 -191 -33 -290 -50 -99 -17 -232 -40 -295 -51 -63 -11 -164
-28 -225 -39 -60 -10 -190 -33 -287 -50 -98 -16 -258 -44 -355 -60 -98 -17
-230 -40 -293 -51 -546 -95 -1591 -270 -1900 -319 -144 -23 -261 -44 -350 -61
-75 -15 -246 -7 -286 14 -17 9 -36 29 -42 44 -6 15 -57 181 -112 368 -120 401
-253 848 -430 1440 -71 237 -201 673 -290 970 -89 297 -175 580 -191 629 -16
49 -32 121 -36 161 -8 98 16 150 85 188 57 31 52 30 637 117 259 39 498 75
532 80 35 6 92 15 128 20 36 6 93 14 127 20 35 5 200 30 368 55 168 25 332 50
365 55 33 5 137 21 230 35 169 25 238 36 357 55 35 5 171 26 303 45 132 19
268 40 303 45 34 6 91 15 127 20 36 6 93 14 128 20 34 5 303 46 597 90 294 44
563 85 598 90 34 6 90 14 125 20 34 5 229 35 432 65 428 64 564 85 585 89 37
8 38 3 7 -46z m281 26 c76 -31 122 -95 122 -169 0 -50 -16 -89 -49 -119 -21
-19 -22 -19 -45 4 -22 20 -24 28 -19 71 4 36 1 55 -11 73 -45 70 -154 67 -191
-4 -13 -26 -21 -30 -55 -30 -36 0 -40 2 -40 25 0 61 62 135 128 155 45 14 120
11 160 -6z m-108 -114 c0 -6 -7 -24 -15 -40 -11 -21 -23 -30 -40 -30 -31 0
-32 18 -4 54 20 26 59 36 59 16z m89 -26 c20 -25 28 -83 15 -97 -5 -5 -76 25
-92 38 -4 4 43 85 50 85 4 0 16 -12 27 -26z m-544 -181 c-4 -10 -10 -31 -14
-47 -6 -27 -13 -31 -88 -51 -122 -32 -206 -78 -280 -152 -87 -87 -118 -153
-118 -253 0 -66 4 -85 34 -145 23 -46 56 -91 97 -132 65 -64 191 -145 257
-165 36 -11 37 -12 37 -59 0 -26 3 -56 6 -66 4 -10 -41 30 -99 89 -131 130
-235 215 -393 320 l-122 80 -5 51 c-21 209 158 411 441 497 57 17 153 36 246
49 4 0 5 -7 1 -16z m-25 -105 c0 -7 -4 -41 -9 -76 -8 -51 -15 -66 -41 -88 -94
-80 -91 -203 8 -298 l40 -38 -18 -57 c-10 -31 -21 -77 -25 -103 -3 -27 -8 -48
-9 -48 -15 0 -114 51 -167 86 -76 50 -138 114 -171 176 -34 65 -33 176 4 239
53 90 145 152 288 195 88 27 100 28 100 12z m713 -19 c152 -77 291 -209 353
-335 38 -76 39 -81 39 -184 0 -94 -3 -111 -28 -164 -52 -113 -136 -192 -275
-261 -154 -76 -385 -113 -580 -94 -59 6 -108 12 -108 12 -1 1 -4 35 -8 75 l-6
73 37 -8 c21 -4 101 -7 178 -7 109 1 158 5 222 22 168 43 305 139 360 251 24
47 28 69 28 136 -1 145 -81 285 -220 380 -56 39 -62 52 -49 103 8 27 5 27 57
1z m-527 -111 c112 -41 278 -26 369 34 l30 20 -29 -25 c-47 -41 -129 -62 -231
-61 -104 1 -179 24 -235 75 l-35 30 36 -26 c21 -14 63 -35 95 -47z m-2285 47
c635 -67 1191 -290 1574 -632 196 -176 344 -382 420 -585 l18 -48 -34 -55
c-44 -73 -77 -104 -247 -227 -119 -87 -148 -104 -172 -100 -23 3 -45 -7 -106
-51 -61 -44 -81 -54 -95 -47 -10 6 -22 10 -27 10 -5 0 -73 -41 -151 -90 -180
-114 -195 -122 -225 -114 -20 5 -46 -11 -138 -81 -62 -48 -114 -95 -116 -104
-2 -11 15 -32 43 -55 l45 -38 -24 -19 c-20 -16 -24 -30 -28 -86 -4 -54 -1 -71
11 -80 23 -17 28 -16 35 9 7 30 26 12 35 -34 9 -43 32 -47 81 -14 22 14 45 26
52 27 7 0 40 17 73 38 58 36 60 39 63 84 l3 47 99 70 c54 38 105 70 112 70 25
-1 94 -37 130 -69 38 -33 58 -39 58 -18 0 16 -30 45 -82 80 l-38 25 75 54 c41
29 75 60 75 70 0 9 33 43 73 75 63 52 73 64 77 98 5 39 9 43 148 135 79 53
165 115 191 137 27 23 51 39 55 36 3 -4 6 -73 6 -155 0 -113 -5 -171 -21 -244
-72 -332 -281 -633 -610 -879 -895 -668 -2399 -722 -3398 -123 -215 130 -444
335 -570 513 -76 107 -172 301 -201 405 -29 106 -53 302 -45 374 22 213 57
343 137 498 296 579 1038 1000 1926 1092 179 19 539 19 713 1z m2830 -72 c159
-122 202 -289 106 -415 -99 -130 -282 -199 -524 -197 -65 0 -138 4 -163 7
l-45 7 1 50 c0 28 6 69 13 93 l12 43 62 -8 c152 -20 289 8 365 72 50 43 77
108 68 164 -4 26 -1 48 9 67 9 17 15 56 15 97 0 37 4 67 9 67 6 0 38 -21 72
-47z m-756 -23 c-13 -20 18 -84 61 -124 30 -29 40 -46 34 -55 -12 -20 -58 1
-101 45 -39 40 -45 90 -14 124 19 21 30 27 20 10z m212 -128 c9 -6 -1 -35 -38
-107 -84 -170 -91 -210 -93 -566 l-1 -305 -39 -80 c-60 -121 -171 -226 -420
-393 l-198 -133 -22 21 -21 22 25 20 c14 10 72 49 130 85 278 176 394 301 442
476 16 62 19 97 16 228 -2 85 -1 142 2 125 7 -30 7 -30 13 -5 3 14 8 86 11
160 5 151 19 218 71 328 57 121 84 148 122 124z m121 -109 c-16 -2 -40 -2 -55
0 -16 2 -3 4 27 4 30 0 43 -2 28 -4z m-324 -187 c-3 -15 -8 -25 -11 -23 -2 3
-1 17 3 31 3 15 8 25 11 23 2 -3 1 -17 -3 -31z m-17 -108 c-3 -7 -5 -2 -5 12
0 14 2 19 5 13 2 -7 2 -19 0 -25z m-242 -218 c10 -11 16 -20 13 -20 -3 0 -13
9 -23 20 -10 11 -16 20 -13 20 3 0 13 -9 23 -20z m113 -148 c63 -93 102 -163
102 -184 0 -7 -21 25 -46 72 -25 47 -68 117 -96 155 -28 39 -44 64 -35 57 9
-8 42 -53 75 -100z m213 -487 c8 -36 13 -123 13 -220 0 -142 -3 -172 -28 -269
-32 -125 -78 -240 -135 -336 -286 -482 -863 -839 -1591 -984 -230 -46 -350
-58 -635 -61 l-270 -3 250 8 c248 8 348 16 520 46 603 103 1126 356 1465 710
190 199 307 400 368 636 23 92 26 121 26 278 0 112 -4 190 -12 218 -7 23 -10
47 -6 54 10 15 19 -6 35 -77z m-602 -188 c-20 -17 -129 -87 -129 -83 0 8 112
86 123 86 6 0 8 -2 6 -3z m-139 -133 c38 -26 68 -50 65 -54 -2 -3 -70 -51
-150 -106 -105 -71 -145 -105 -145 -119 0 -11 -4 -25 -8 -31 -9 -13 -206 -164
-214 -164 -10 0 -223 150 -226 159 -1 4 43 42 98 84 81 62 108 77 136 77 27 0
70 23 192 100 86 55 163 100 170 100 7 0 44 -21 82 -46z m234 -9 c-6 -14 -83
-81 -100 -87 -5 -2 -10 1 -12 5 -2 7 104 95 115 97 1 0 0 -7 -3 -15z m-764
-529 c0 -3 -4 -8 -10 -11 -5 -3 -10 -1 -10 4 0 6 5 11 10 11 6 0 10 -2 10 -4z
m1344 -153 c-228 -413 -632 -743 -1181 -967 -492 -200 -1118 -291 -1673 -241
-156 14 -258 26 -325 39 -16 3 -77 15 -135 26 -229 42 -488 125 -731 233 -43
19 -58 31 -63 52 -4 15 -5 30 -2 32 2 3 49 -15 103 -40 324 -148 726 -250
1134 -288 172 -15 696 -6 844 15 433 63 762 160 1086 321 417 208 743 492 926
807 56 96 69 104 17 11z m-2816 -850 c-10 -2 -26 -2 -35 0 -10 3 -2 5 17 5 19
0 27 -2 18 -5z m-1595 -70 c-7 -2 -19 -2 -25 0 -7 3 -2 5 12 5 14 0 19 -2 13
-5z m140 0 c-7 -2 -19 -2 -25 0 -7 3 -2 5 12 5 14 0 19 -2 13 -5z m-65 -10
c-10 -2 -26 -2 -35 0 -10 3 -2 5 17 5 19 0 27 -2 18 -5z"/>
<path d="M5042 6944 c-72 -19 -104 -37 -141 -79 -58 -67 -38 -161 50 -224 77
-56 142 -74 264 -75 95 -1 117 3 162 23 29 13 69 41 88 62 29 33 35 46 35 85
0 58 -27 104 -85 144 -104 72 -251 97 -373 64z m260 -25 c132 -44 204 -125
183 -206 l-7 -28 -15 29 c-12 24 -20 27 -46 23 -20 -3 -50 5 -87 22 -49 22
-68 25 -170 26 -119 0 -118 0 -257 -61 -18 -8 -28 61 -13 95 18 44 63 82 122
102 76 26 210 25 290 -2z m146 -201 c19 -19 14 -53 -12 -77 -84 -79 -316 -83
-448 -7 -21 11 -38 24 -38 27 0 4 28 9 63 13 142 15 256 29 327 41 99 17 94
17 108 3z"/>
<path d="M918 6156 c-108 -39 -144 -112 -92 -192 39 -58 172 -87 265 -56 40
14 83 54 97 93 41 107 -130 205 -270 155z m153 -8 c76 -25 125 -86 112 -136
-5 -22 -5 -22 -25 3 -34 43 -76 59 -158 59 -85 0 -153 -27 -165 -65 -7 -20 -8
-21 -17 -5 -14 25 -1 70 30 99 52 50 151 70 223 45z m0 -109 c14 -7 19 -21 19
-53 0 -58 -17 -71 -95 -71 -77 0 -95 13 -95 70 0 42 7 50 60 69 20 7 87 -2
111 -15z"/>
<path d="M7430 5635 c-41 -7 -145 -22 -230 -34 -85 -13 -157 -24 -159 -26 -2
-3 722 -1457 733 -1472 1 -1 44 7 96 18 176 36 196 40 330 65 52 9 99 20 103
24 4 4 -83 179 -193 390 -141 268 -200 390 -196 405 6 24 -27 85 -47 85 -8 0
-77 120 -159 278 -166 315 -140 290 -278 267z m232 -298 c72 -136 129 -249
127 -251 -2 -2 -29 -6 -59 -9 l-55 -6 -46 87 c-33 63 -52 88 -67 90 -12 2 -22
1 -22 -1 0 -2 20 -42 45 -89 50 -96 51 -98 30 -98 -8 0 -15 -9 -15 -19 0 -13
-9 -21 -30 -26 -19 -4 -30 -13 -30 -23 1 -9 24 -62 53 -117 l52 -100 66 3 c57
3 67 1 73 -15 4 -10 36 -73 72 -140 54 -101 67 -120 84 -116 17 5 13 17 -50
143 -75 149 -75 150 -6 150 18 0 36 4 42 9 5 6 68 -103 166 -292 107 -205 153
-304 145 -308 -24 -13 -437 -91 -451 -86 -8 3 -172 320 -365 705 l-349 698
206 31 c114 17 218 30 230 29 20 -1 43 -37 154 -249z m218 -287 c6 -11 9 -20
7 -20 -2 0 -52 -7 -112 -15 -81 -12 -111 -12 -121 -4 -38 32 -13 39 198 58 10
0 22 -8 28 -19z m-241 -120 c-1 -36 2 -76 6 -90 12 -38 1 -22 -40 60 -20 41
-31 69 -24 63 19 -18 29 -16 29 6 0 11 3 27 6 36 13 32 24 -7 23 -75z m267
-67 c-2 -2 -55 -10 -117 -19 -107 -14 -115 -14 -127 3 -15 21 -27 17 123 37
88 11 101 11 112 -2 7 -9 11 -17 9 -19z"/>
<path d="M7262 5263 c2 -10 12 -18 23 -18 11 0 21 8 23 18 3 13 -3 17 -23 17
-20 0 -26 -4 -23 -17z"/>
<path d="M1960 2935 c-173 -30 -316 -54 -317 -54 -16 -4 65 -301 83 -308 11
-4 604 91 647 103 19 6 22 36 8 80 -6 16 -24 75 -41 132 -24 79 -35 102 -48
101 -9 -1 -159 -25 -332 -54z m370 -88 c18 -60 30 -110 27 -113 -7 -7 -617
-107 -622 -102 -13 13 -67 220 -59 227 5 5 126 27 269 50 143 23 278 46 300
50 22 4 43 5 47 2 3 -3 21 -55 38 -114z"/>
<path d="M2961 2921 c-52 -9 -96 -21 -98 -28 -2 -6 2 -33 10 -60 13 -44 16
-48 43 -45 73 8 199 33 207 41 5 5 2 30 -6 57 -17 58 -19 59 -156 35z m133
-23 c3 -13 6 -28 6 -35 0 -11 -55 -25 -151 -39 -45 -6 -47 -5 -57 26 -13 37
-17 35 98 54 47 7 88 14 91 15 4 0 9 -9 13 -21z"/>
<path d="M2600 2861 l-95 -17 1 -29 c1 -17 8 -44 15 -61 l14 -31 105 18 c58
10 111 18 119 18 15 1 11 44 -8 94 -12 32 -16 32 -151 8z m137 -36 c6 -19 9
-35 6 -35 -3 0 -48 -7 -100 -16 -103 -18 -113 -15 -113 32 0 20 9 23 93 37 50
8 95 15 98 16 3 0 10 -15 16 -34z"/>
<path d="M3566 5684 c-100 -19 -160 -41 -261 -92 -116 -60 -227 -166 -274
-263 -59 -120 -53 -270 16 -386 167 -285 649 -421 1048 -296 312 98 506 335
464 568 -40 225 -257 403 -574 470 -88 18 -324 18 -419 -1z m252 -463 c4 -64
3 -69 -18 -76 -37 -12 -44 7 -30 82 7 37 15 72 17 76 12 21 28 -19 31 -82z
m-95 -96 c26 -18 66 -19 101 -4 22 10 25 19 28 71 l3 59 34 -23 c93 -63 43
-169 -87 -185 -95 -11 -182 40 -182 105 1 40 11 59 50 85 l25 18 3 -56 c2 -43
8 -58 25 -70z"/>
<path d="M5372 4870 c-31 -13 -38 -37 -17 -60 31 -35 125 -16 125 24 0 32 -66
53 -108 36z m66 -42 c5 -24 -44 -36 -65 -15 -22 21 -7 39 30 35 21 -2 33 -9
35 -20z"/>
<path d="M5152 4718 c-35 -35 14 -82 63 -60 31 14 41 37 25 57 -15 18 -71 20
-88 3z"/>
</g>
</svg>
